<svg xmlns="http://www.w3.org/2000/svg">


  <symbol xmlns="http://www.w3.org/2000/svg"  viewBox="0 0 660.52 262.96" id="appsilon-logo">
    <g >
      <path d="M278.9 142h-22.08l-4.26 12.77H239l22.35-59.14H277l21 59.17h-14.76zm-3.55-10.55l-7.54-22.35-7.45 22.35zm68.65-17.4q5.94 5.64 5.94 18.76 0 10.55-5.32 16.94t-14.54 6.38a23.94 23.94 0 01-11.26-2.39v17.11h-12.97v-51.43q0-5.42 6-8.16t15.38-2.84q10.77 0 16.77 5.63zm-9.84 28.42q2.57-3 2.57-10.1 0-6.39-2.26-9.63t-7.76-3.23q-7.89 0-7.89 3v21.11a11.84 11.84 0 003.55 1.42 17.48 17.48 0 003.81.44c3.58.01 6.24-.99 7.96-3.01zm62.23-28.42q5.94 5.64 5.94 18.76 0 10.55-5.32 16.94t-14.55 6.38a24 24 0 01-11.26-2.39v17.11h-12.94v-51.43q0-5.42 6-8.16t15.39-2.84q10.79 0 16.74 5.63zm-9.84 28.42q2.56-3 2.57-10.1c0-4.26-.76-7.47-2.26-9.63s-4.1-3.23-7.76-3.23c-5.26 0-7.9 1-7.9 3v21.11a12 12 0 003.55 1.42 17.5 17.5 0 003.82.44c3.6.01 6.26-.99 7.98-3.01zm31.74 12.82a58.44 58.44 0 01-7.09-2.44v-11.62a24.64 24.64 0 0015.07 5.41 7.46 7.46 0 004.39-1 3.3 3.3 0 001.37-2.79 3.21 3.21 0 00-2.21-3 44.32 44.32 0 00-7.1-2.12 16.78 16.78 0 01-8.46-4.26q-3.33-3.19-3.33-9.31a13.48 13.48 0 012.66-8.6 15.39 15.39 0 016.69-4.92 23.08 23.08 0 018.39-1.56 32.51 32.51 0 018.64.94 25.83 25.83 0 016.52 2.88v10.37c-3-1.65-5.35-2.84-7-3.55a14.69 14.69 0 00-5.76-1.06 9.22 9.22 0 00-4.88 1 3.23 3.23 0 00-1.59 2.88 3.47 3.47 0 001.77 3.24 25.74 25.74 0 005.67 2.08 50.69 50.69 0 017 2.26 11.58 11.58 0 014.61 3.82q2 2.7 2 7.58-.18 7.62-5.76 11.13t-14.19 3.5a29.46 29.46 0 01-7.41-.86zm37.78-61.67h13.65v10.19h-13.65zm.26 16.93h13.21l.09 44.25h-13.3zm25.98 44.25V93h13.12v61.8zm28.91-4.7q-5.69-6-5.68-17.91 0-12.42 5.63-18.09t17.07-5.68q11.44 0 17.21 5.81t5.76 18q0 11.7-5.94 17.82t-17 6.12q-11.38-.04-17.05-6.07zm24.38-7.94q2.49-3.41 2.49-10 0-7.18-2.44-10.24t-7.41-3.06c-3.43 0-5.89 1-7.4 3.06s-2.26 5.45-2.26 10.24q0 6.83 2.35 10.11t7.31 3.28a8.51 8.51 0 007.36-3.39zm34.4-31.87a58.07 58.07 0 0112.68-1.6q9.48 0 14.27 3.72t4.79 12.24v30.15h-13.2v-27.49q0-7.71-8.69-7.71a19.12 19.12 0 00-4 .44 12.7 12.7 0 00-3.19 1.06v33.7h-13.21v-41.06a43.75 43.75 0 0110.55-3.45z"></path>
      <path d="M68.1 61v142.47l123.39-71.24zm38.51 71.23l-34 58.82V73.41zm2.62 0zm1.31 2.27h67.93L76.59 193.32zm0-4.55L76.59 71.14 178.46 130z" opacity=".7" fill="#8a8e91"></path>
      <path d="M64.87 54.33A11.84 11.84 0 1081 58.67a11.84 11.84 0 00-16.13-4.34zm38.68 67.01a11.84 11.84 0 1016.18 4.33 11.84 11.84 0 00-16.18-4.33zm-38.87 66.78a11.84 11.84 0 1016.18 4.34 11.84 11.84 0 00-16.18-4.34zm116.14-67.06A11.85 11.85 0 10197 125.4a11.85 11.85 0 00-16.18-4.34z"></path>
        </g>
  </symbol>

  <symbol id="shiny-logo" viewBox="0 0 100 68">
    <path d="M55.096 10.462c1.338-1.374.14-3.699-1.322-3.136-1.482.572-1.92 1.303-1.885 2.431.14 1.32 1.198 2.502 3.207.705zM40.07 0c-.781-.02-1.798.303-3.088 1.13-3.35 2.151-5.555 8.884-6.865 12.882-1.165 3.553-5.785 22.437-5.785 22.437s3.039-.124 4.472-.31c.55-2.084 1.244-5.877 2.328-9.354.997-3.197 2.211-6.195 5.052-7.607 2.045-1.015 1.987.431 1.485 2.002-.696 2.179-2.66 8.604-2.15 12.081.403 2.761 3.02 3.408 5.25 1.47 2.818-2.446 4.574-6.03 4.574-6.03s-.356 4.813 1.99 5.44c3.023.808 6.572-4.766 7.12-6.01-.545 2.505-.977 3.765-.89 4.418 2.111-.14 3.217-.17 4.477-.293.29-1.902 1.594-9.587 3.285-12.665 1.368-2.493 2.42-4.464 4.564-4.822 1.392-.232 1.523.689.923 2.426-.723 2.09-1.95 7.958-2.246 10.885-.316 3.133 1.803 4.721 4.122 3.504 2.279-1.198 4.31-4.12 5.669-6.74.099 2.605.222 3.708 1.46 4.704 1.153.93 3.168.578 4.673-.666 1.6-1.322 2.573-2.89 3.57-4.157-.325 1.322-.935 3.806-1.308 4.999-1.577.635-4.086.447-6.88 1.675-2.311 1.018-3.936 3.264-3.46 5.09.593 2.27 2.413 2.754 4.784 2.654 4.872-.206 8.181-3.81 9.611-8.625 1.896-.899 3.185-1.84 5.332-3.455 1.93-1.452 3.033-2.6 3.558-2.397.478.187.184 1.696-1.085 3.264-1.308 1.616-4.97 5.795-6.827 7.771-3.052 3.25-7.598 6.779-16.742 7.923-6.623.828-21.972 1.665-31.614 1.943C21.025 46.097 8.04 49.436 0 54.107 12.609 53.825 21.681 62.174 24.775 68c2.22-6.65 5.244-10.736 13.781-14.612 9.53-4.326 23.42-5.355 31.442-6.077 7.596-.684 12.806-3.238 17.863-8.569 4.898-5.162 10.038-10.61 11.583-14.821 1.509-4.112-.174-5.455-3.588-2.392-3.338 2.996-5.754 5.804-8.444 7.075.716-3.445 1.27-5.48 2.217-8.992.9-3.34 2.068-8.27 4.087-9.69-2.09.167-4.518.069-5.632 1.271-1.053 1.137-1.583 3.794-2.5 6.406-.794 2.261-3.005 6.351-4.458 7.82-.743.752-2.637 2.495-2.488-1.093.15-3.586 1.103-5.848 1.85-7.89.747-2.043 1.545-3.759 2.737-4.888.468-.443.293-1.075-.648-.945-1.61.27-3.541.477-4.849 2.44-1.44 2.163-2.193 5.84-2.891 7.435-.698 1.594-2.212 4.811-4.318 6.58-.954.8-1.718.706-1.52-1.646.183-2.176 1.777-6.578 2.314-9.381.437-2.282-.199-4.048-2.64-3.9-2.838.173-5.413 2.2-6.726 3.75.102-.857.26-1.143.104-1.887-.183-.866-.599-1.007-1.633-1.007-1.2 0-2.977.135-2.977.135s.35 1.302.138 2.953c-.217 1.682-.502 3.448-1.115 4.844-.73 1.66-2.007 4.491-3.239 6.327-1.095 1.629-4.538 5.013-3.458-.66.732-3.842 3.259-10.651 4.666-12.155-2.013.077-2.976-.248-4.235.489-1.498.877-3.259 5.247-3.891 7.63-.665 2.513-3.235 7.053-4.112 7.971-1.764 1.845-2.56.974-2.272-1.221.287-2.17 1.6-6.52 2.37-9.24.777-2.73-.277-4.423-2.646-4.193-1.962.191-3.25 1.019-4.592 1.99.89-1.513 3.426-5.294 4.65-7.769 1.344-2.713 2.805-5.822 2.49-7.912C42.019 1.01 41.37.032 40.07 0zm-.294 1.612c.384-.055.621.301.574.862-.364 4.379-5.206 12.03-7.298 15.144.797-3.662 3.676-12.709 5.905-15.418.306-.373.588-.555.82-.588zm42.308 30.284c-.97 2.666-1.643 4.518-3.877 5.337-2.642.969-4.533-2.345-2.484-3.61 1.55-.959 6.361-1.727 6.361-1.727zm-75.011-3.47c-1.727 2.396-1.946 4.16-1.077 5.86.989 1.936 2.795 2.997 5.438 3.103 2.642.105 5.646-.368 7.935-1.636 3.434-1.902 6.303-6.676 4.404-11.343-2.196-5.4-5.51-6.943-7.45-9.903-1.445-2.202-.534-5.482.9-7.323.875-1.124 4.195-.723 4.89-.048.972.945.945 2.237 1.117 3.73.148 1.283.772 1.803 1.947.875 1.212-.957 2.59-2.226 2.332-3.782-.282-1.694-2.493-2.819-4.828-3.628-3.041-1.053-6.7.374-8.385 1.972-2.013 1.91-3.671 5.299-3.236 8.625.563 4.301 5.677 8.981 6.886 10.892 1.76 2.784 1.967 4.89.86 6.905-1.862 3.385-4.373 3.875-6.307 2.782-2.528-1.43-3.453-4.508-3.583-6.94-.106-1.585-.812-1.6-1.843-.14z"/>
  </symbol>
  <symbol id="revenue" viewBox="0 0 512 512">
    <path d="M0 405.3V448c0 35.3 86 64 192 64s192-28.7 192-64v-42.7C342.7 434.4 267.2 448 192 448S41.3 434.4 0 405.3zM320 128c106 0 192-28.7 192-64S426 0 320 0 128 28.7 128 64s86 64 192 64zM0 300.4V352c0 35.3 86 64 192 64s192-28.7 192-64v-51.6c-41.3 34-116.9 51.6-192 51.6S41.3 334.4 0 300.4zm416 11c57.3-11.1 96-31.7 96-55.4v-42.7c-23.2 16.4-57.3 27.6-96 34.5v63.6zM192 160C86 160 0 195.8 0 240s86 80 192 80 192-35.8 192-80-86-80-192-80zm219.3 56.3c60-10.8 100.7-32 100.7-56.3v-42.7c-35.5 25.1-96.5 38.6-160.7 41.8 29.5 14.3 51.2 33.5 60 57.2z"/>
  </symbol>
  <symbol id="profit" viewBox="0 0 640 512">
    <path d="M320 144c-53.02 0-96 50.14-96 112 0 61.85 42.98 112 96 112 53 0 96-50.13 96-112 0-61.86-42.98-112-96-112zm40 168c0 4.42-3.58 8-8 8h-64c-4.42 0-8-3.58-8-8v-16c0-4.42 3.58-8 8-8h16v-55.44l-.47.31a7.992 7.992 0 0 1-11.09-2.22l-8.88-13.31a7.992 7.992 0 0 1 2.22-11.09l15.33-10.22a23.99 23.99 0 0 1 13.31-4.03H328c4.42 0 8 3.58 8 8v88h16c4.42 0 8 3.58 8 8v16zM608 64H32C14.33 64 0 78.33 0 96v320c0 17.67 14.33 32 32 32h576c17.67 0 32-14.33 32-32V96c0-17.67-14.33-32-32-32zm-16 272c-35.35 0-64 28.65-64 64H112c0-35.35-28.65-64-64-64V176c35.35 0 64-28.65 64-64h416c0 35.35 28.65 64 64 64v160z"/>
  </symbol>
  <symbol id="orders_count" viewBox="0 0 576 512">
    <path d="M0 432c0 26.5 21.5 48 48 48h480c26.5 0 48-21.5 48-48V256H0v176zm192-68c0-6.6 5.4-12 12-12h136c6.6 0 12 5.4 12 12v40c0 6.6-5.4 12-12 12H204c-6.6 0-12-5.4-12-12v-40zm-128 0c0-6.6 5.4-12 12-12h72c6.6 0 12 5.4 12 12v40c0 6.6-5.4 12-12 12H76c-6.6 0-12-5.4-12-12v-40zM576 80v48H0V80c0-26.5 21.5-48 48-48h480c26.5 0 48 21.5 48 48z"/>
  </symbol>
  <symbol id="cost" viewBox="0 0 576 512">
    <path d="M576 216v16c0 13.255-10.745 24-24 24h-8l-26.113 182.788C514.509 462.435 494.257 480 470.37 480H105.63c-23.887 0-44.139-17.565-47.518-41.212L32 256h-8c-13.255 0-24-10.745-24-24v-16c0-13.255 10.745-24 24-24h67.341l106.78-146.821c10.395-14.292 30.407-17.453 44.701-7.058 14.293 10.395 17.453 30.408 7.058 44.701L170.477 192h235.046L326.12 82.821c-10.395-14.292-7.234-34.306 7.059-44.701 14.291-10.395 34.306-7.235 44.701 7.058L484.659 192H552c13.255 0 24 10.745 24 24zM312 392V280c0-13.255-10.745-24-24-24s-24 10.745-24 24v112c0 13.255 10.745 24 24 24s24-10.745 24-24zm112 0V280c0-13.255-10.745-24-24-24s-24 10.745-24 24v112c0 13.255 10.745 24 24 24s24-10.745 24-24zm-224 0V280c0-13.255-10.745-24-24-24s-24 10.745-24 24v112c0 13.255 10.745 24 24 24s24-10.745 24-24z"/>
  </symbol>
  <symbol id="produced_items" viewBox="0 0 512 512">
    <path d="M501.1 395.7L384 278.6c-23.1-23.1-57.6-27.6-85.4-13.9L192 158.1V96L64 0 0 64l96 128h62.1l106.6 106.6c-13.6 27.8-9.2 62.3 13.9 85.4l117.1 117.1c14.6 14.6 38.2 14.6 52.7 0l52.7-52.7c14.5-14.6 14.5-38.2 0-52.7zM331.7 225c28.3 0 54.9 11 74.9 31l19.4 19.4c15.8-6.9 30.8-16.5 43.8-29.5 37.1-37.1 49.7-89.3 37.9-136.7-2.2-9-13.5-12.1-20.1-5.5l-74.4 74.4-67.9-11.3L334 98.9l74.4-74.4c6.6-6.6 3.4-17.9-5.7-20.2-47.4-11.7-99.6.9-136.6 37.9-28.5 28.5-41.9 66.1-41.2 103.6l82.1 82.1c8.1-1.9 16.5-2.9 24.7-2.9zm-103.9 82l-56.7-56.7L18.7 402.8c-25 25-25 65.5 0 90.5s65.5 25 90.5 0l123.6-123.6c-7.6-19.9-9.9-41.6-5-62.7zM64 472c-13.2 0-24-10.8-24-24 0-13.3 10.7-24 24-24s24 10.7 24 24c0 13.2-10.7 24-24 24z"/>
  </symbol>
  <symbol id="users_active" viewBox="0 0 640 512">
    <path d="M624 208h-64v-64c0-8.8-7.2-16-16-16h-32c-8.8 0-16 7.2-16 16v64h-64c-8.8 0-16 7.2-16 16v32c0 8.8 7.2 16 16 16h64v64c0 8.8 7.2 16 16 16h32c8.8 0 16-7.2 16-16v-64h64c8.8 0 16-7.2 16-16v-32c0-8.8-7.2-16-16-16zm-400 48c70.7 0 128-57.3 128-128S294.7 0 224 0 96 57.3 96 128s57.3 128 128 128zm89.6 32h-16.7c-22.2 10.2-46.9 16-72.9 16s-50.6-5.8-72.9-16h-16.7C60.2 288 0 348.2 0 422.4V464c0 26.5 21.5 48 48 48h352c26.5 0 48-21.5 48-48v-41.6c0-74.2-60.2-134.4-134.4-134.4z"/>
  </symbol>
  <symbol id="users_dropped_out" viewBox="0 0 640 512">
    <path d="M589.6 240l45.6-45.6c6.3-6.3 6.3-16.5 0-22.8l-22.8-22.8c-6.3-6.3-16.5-6.3-22.8 0L544 194.4l-45.6-45.6c-6.3-6.3-16.5-6.3-22.8 0l-22.8 22.8c-6.3 6.3-6.3 16.5 0 22.8l45.6 45.6-45.6 45.6c-6.3 6.3-6.3 16.5 0 22.8l22.8 22.8c6.3 6.3 16.5 6.3 22.8 0l45.6-45.6 45.6 45.6c6.3 6.3 16.5 6.3 22.8 0l22.8-22.8c6.3-6.3 6.3-16.5 0-22.8L589.6 240zM224 256c70.7 0 128-57.3 128-128S294.7 0 224 0 96 57.3 96 128s57.3 128 128 128zm89.6 32h-16.7c-22.2 10.2-46.9 16-72.9 16s-50.6-5.8-72.9-16h-16.7C60.2 288 0 348.2 0 422.4V464c0 26.5 21.5 48 48 48h352c26.5 0 48-21.5 48-48v-41.6c0-74.2-60.2-134.4-134.4-134.4z"/>
  </symbol>
  <symbol id="complaints_opened" viewBox="0 0 512 512">
    <path d="M494.586 164.516c-4.697-3.883-111.723-89.95-135.251-108.657C337.231 38.191 299.437 0 256 0c-43.205 0-80.636 37.717-103.335 55.859-24.463 19.45-131.07 105.195-135.15 108.549A48.004 48.004 0 0 0 0 201.485V464c0 26.51 21.49 48 48 48h416c26.51 0 48-21.49 48-48V201.509a48 48 0 0 0-17.414-36.993zM464 458a6 6 0 0 1-6 6H54a6 6 0 0 1-6-6V204.347c0-1.813.816-3.526 2.226-4.665 15.87-12.814 108.793-87.554 132.364-106.293C200.755 78.88 232.398 48 256 48c23.693 0 55.857 31.369 73.41 45.389 23.573 18.741 116.503 93.493 132.366 106.316a5.99 5.99 0 0 1 2.224 4.663V458zm-31.991-187.704c4.249 5.159 3.465 12.795-1.745 16.981-28.975 23.283-59.274 47.597-70.929 56.863C336.636 362.283 299.205 400 256 400c-43.452 0-81.287-38.237-103.335-55.86-11.279-8.967-41.744-33.413-70.927-56.865-5.21-4.187-5.993-11.822-1.745-16.981l15.258-18.528c4.178-5.073 11.657-5.843 16.779-1.726 28.618 23.001 58.566 47.035 70.56 56.571C200.143 320.631 232.307 352 256 352c23.602 0 55.246-30.88 73.41-45.389 11.994-9.535 41.944-33.57 70.563-56.568 5.122-4.116 12.601-3.346 16.778 1.727l15.258 18.526z"/>
  </symbol>
  <symbol id="complaints_closed" viewBox="0 0 512 512">
    <path d="M464 64H48C21.49 64 0 85.49 0 112v288c0 26.51 21.49 48 48 48h416c26.51 0 48-21.49 48-48V112c0-26.51-21.49-48-48-48zm0 48v40.805c-22.422 18.259-58.168 46.651-134.587 106.49-16.841 13.247-50.201 45.072-73.413 44.701-23.208.375-56.579-31.459-73.413-44.701C106.18 199.465 70.425 171.067 48 152.805V112h416zM48 400V214.398c22.914 18.251 55.409 43.862 104.938 82.646 21.857 17.205 60.134 55.186 103.062 54.955 42.717.231 80.509-37.199 103.053-54.947 49.528-38.783 82.032-64.401 104.947-82.653V400H48z"/>
  </symbol>
</svg>
